<svg width="1073" height="192" viewBox="0 0 1073 192" fill="none" xmlns="http://www.w3.org/2000/svg">
<g clip-path="url(#clip0_10_5)">
<path d="M814.683 187.874V3.54108H859.907V187.874H814.683Z" fill="black"/>
<path d="M1028.2 3.54108H1072.46V187.874H1035.79L943.377 71.7489L944.109 187.874H899.617V3.54108H937.27L1029.68 118.933L1028.21 3.54108H1028.2Z" fill="black"/>
<path d="M330.501 187.874V45.3408H290.166V3.54108H416.07V45.3507H375.735V187.883H330.511L330.501 187.874Z" fill="black"/>
<path d="M0 96.4459C0 39.2348 43.7595 0.117432 99.0108 0.117432C132.259 0.117432 162.329 13.5591 181.64 42.4121L141.79 63.1882C131.031 48.5192 117.095 40.6997 99.4958 40.6997C68.4454 40.6997 46.6894 64.9006 46.6894 96.6834C46.6894 128.466 70.4053 152.182 98.0309 152.182C120.767 152.182 137.148 138.493 140.078 120.399V120.152H101.456V85.4392H190.687V93.2587C190.687 153.4 154.747 191.052 97.5459 191.052C43.5121 191.052 0 152.182 0 96.4459Z" fill="black"/>
<path d="M221.71 187.874V3.54108H266.934V187.874H221.71Z" fill="black"/>
<path d="M525.642 149.251C497.531 149.251 473.815 127.247 473.815 95.7118C473.815 65.8888 496.551 42.173 526.137 42.173C540.707 42.173 553.426 47.6862 562.68 56.8123C567.144 42.559 574.093 29.2262 583.328 17.3089C567.154 6.51007 547.477 0.363342 526.374 0.363342C472.103 0.363342 427.116 40.9456 427.116 95.4644C427.116 152.675 472.34 191.05 525.642 191.05C546.923 191.05 566.749 185.092 583.011 174.501C573.885 162.593 567.006 149.181 562.601 134.75C553.208 143.836 540.301 149.251 525.642 149.251Z" fill="black"/>
<path d="M687.751 0.363403C653.691 0.363403 623.294 16.3488 605.369 41.7276C594.738 56.7925 588.492 75.1634 588.492 95.4644C588.492 115.765 594.718 135.304 605.27 150.349C623.156 175.857 653.493 191.05 687.018 191.05C741.537 191.05 786.524 151.933 786.524 95.9494C786.524 39.9657 741.785 0.363403 687.751 0.363403ZM687.018 149.251C658.908 149.251 635.192 127.247 635.192 95.7119C635.192 65.8889 657.928 42.173 687.513 42.173C717.099 42.173 739.835 65.6414 739.835 95.9593C739.835 126.277 717.099 149.251 687.028 149.251H687.018Z" fill="black"/>
</g>
<defs>
<clipPath id="clip0_10_5">
<rect width="1073" height="192" fill="white"/>
</clipPath>
</defs>
</svg>
