<svg width="708" height="109" viewBox="0 0 708 109" fill="none" xmlns="http://www.w3.org/2000/svg">
<path fill-rule="evenodd" clip-rule="evenodd" d="M653.78 0C623.845 0 599.578 24.267 599.578 54.202H707.982C707.982 24.267 683.715 0 653.78 0Z" fill="#CDCDCD"/>
<path fill-rule="evenodd" clip-rule="evenodd" d="M653.78 108.404C623.845 108.404 599.578 84.1369 599.578 54.2019H707.982C707.982 84.1369 683.715 108.404 653.78 108.404Z" fill="#606060"/>
<path fill-rule="evenodd" clip-rule="evenodd" d="M166.095 24.9031H115.773V38.1581H133.694V86.7601H149.894V38.1581H166.095V24.9031Z" fill="black"/>
<path fill-rule="evenodd" clip-rule="evenodd" d="M171.742 24.9031V38.1581H187.943V86.7601H204.143V38.1581H222.064V24.9031H171.742Z" fill="black"/>
<path fill-rule="evenodd" clip-rule="evenodd" d="M345.362 86.7605V24.9035H329.898V61.9185L302.331 24.9035H286.867V86.7605H302.331V50.1925L329.898 86.7605H345.362Z" fill="black"/>
<path fill-rule="evenodd" clip-rule="evenodd" d="M229.914 86.7606H246.115H275.653V73.5056H246.115V61.3316H271.152V48.0766H246.115V38.1586H275.653V24.9036H229.914V86.7606Z" fill="black"/>
<path fill-rule="evenodd" clip-rule="evenodd" d="M357.688 86.7606H373.888V61.7236H400.039V48.4676H373.888V38.1586H404.9V24.9036H357.688V86.7606Z" fill="black"/>
<path fill-rule="evenodd" clip-rule="evenodd" d="M51.036 24.9031L33.419 68.3921H33.28L15.664 24.9031H0L25.376 86.7601H41.324L66.7 24.9031H51.036Z" fill="black"/>
<path fill-rule="evenodd" clip-rule="evenodd" d="M523.914 86.7606H568.646V73.0286H540.114V24.9036H523.914V86.7606Z" fill="black"/>
<path fill-rule="evenodd" clip-rule="evenodd" d="M472.195 86.7606H516.927V73.0286H488.395V24.9036H472.195V86.7606Z" fill="black"/>
<path fill-rule="evenodd" clip-rule="evenodd" d="M424.689 63.1245L433.153 41.9975H433.26L441.755 63.1225L424.689 63.1245ZM451.261 86.7605H466.924L441.139 24.9035H440.937H425.475H425.274L399.488 86.7605H415.152L419.594 75.7145H446.819L451.261 86.7605Z" fill="black"/>
<path fill-rule="evenodd" clip-rule="evenodd" d="M81.4549 63.1245L89.9189 41.9975H90.0259L98.5209 63.1225L81.4549 63.1245ZM108.027 86.7605H123.69L97.9049 24.9035H97.7029H82.2409H82.0399L56.2539 86.7605H71.9179L76.3599 75.7145H103.585L108.027 86.7605Z" fill="black"/>
</svg>
